REM DIRINDEX 1\5,1\2\6,1\2\7,1\3\8,1\3\9,1\4\10,1\4\11,1\4\12
REM DIRNAME cjc026,folder01,folder02,folder03,folder04,folder05,folder06,folder07,folder08,folder09,folder10,folder11
TITLE ""
FILE "EJE_DB3000_5th_5C_01.mp3" MP3
  TRACK 01 AUDIO
    TITLE "0:"
    INDEX 01 00:00:00
  TRACK 02 AUDIO
    TITLE "10:cjc026_10119"
    INDEX 01 00:00:10
  TRACK 03 AUDIO
    TITLE "0:"
    INDEX 01 00:01:33
  TRACK 04 AUDIO
    TITLE "11:cjc026_10120"
    INDEX 01 00:01:65
  TRACK 05 AUDIO
    TITLE "0:"
    INDEX 01 00:03:18
  TRACK 06 AUDIO
    TITLE "12:cjc026_10121"
    INDEX 01 00:03:55
  TRACK 07 AUDIO
    TITLE "0:"
    INDEX 01 00:05:03
  TRACK 08 AUDIO
    TITLE "10:cjc026_10122"
    INDEX 01 00:05:38
  TRACK 09 AUDIO
    TITLE "0:"
    INDEX 01 00:06:52
  TRACK 10 AUDIO
    TITLE "11:cjc026_10123"
    INDEX 01 00:07:15
  TRACK 11 AUDIO
    TITLE "0:"
    INDEX 01 00:08:72
  TRACK 12 AUDIO
    TITLE "12:cjc026_10124"
    INDEX 01 00:09:29
  TRACK 13 AUDIO
    TITLE "0:"
    INDEX 01 00:10:46
  TRACK 14 AUDIO
    TITLE "10:cjc026_10125"
    INDEX 01 00:11:06
  TRACK 15 AUDIO
    TITLE "0:"
    INDEX 01 00:12:31
  TRACK 16 AUDIO
    TITLE "11:cjc026_10126"
    INDEX 01 00:12:66
  TRACK 17 AUDIO
    TITLE "0:"
    INDEX 01 00:14:46
  TRACK 18 AUDIO
    TITLE "12:cjc026_10127"
    INDEX 01 00:15:09
  TRACK 19 AUDIO
    TITLE "0:"
    INDEX 01 00:16:31
  TRACK 20 AUDIO
    TITLE "10:cjc026_10128"
    INDEX 01 00:16:69
  TRACK 21 AUDIO
    TITLE "0:"
    INDEX 01 00:18:13
  TRACK 22 AUDIO
    TITLE "11:cjc026_10129"
    INDEX 01 00:18:48
  TRACK 23 AUDIO
    TITLE "0:"
    INDEX 01 00:20:25
  TRACK 24 AUDIO
    TITLE "12:cjc026_10130"
    INDEX 01 00:20:63
  TRACK 25 AUDIO
    TITLE "0:"
    INDEX 01 00:22:07
  TRACK 26 AUDIO
    TITLE "10:cjc026_10131"
    INDEX 01 00:22:45
  TRACK 27 AUDIO
    TITLE "0:"
    INDEX 01 00:23:59
  TRACK 28 AUDIO
    TITLE "11:cjc026_10132"
    INDEX 01 00:24:22
  TRACK 29 AUDIO
    TITLE "0:"
    INDEX 01 00:25:47
  TRACK 30 AUDIO
    TITLE "12:cjc026_10133"
    INDEX 01 00:26:10
  TRACK 31 AUDIO
    TITLE "0:"
    INDEX 01 00:27:24
  TRACK 32 AUDIO
    TITLE "10:cjc026_10134"
    INDEX 01 00:27:59
  TRACK 33 AUDIO
    TITLE "0:"
    INDEX 01 00:28:73
  TRACK 34 AUDIO
    TITLE "11:cjc026_10135"
    INDEX 01 00:29:39
  TRACK 35 AUDIO
    TITLE "0:"
    INDEX 01 00:30:63
  TRACK 36 AUDIO
    TITLE "12:cjc026_10136"
    INDEX 01 00:31:24
  TRACK 37 AUDIO
    TITLE "0:"
    INDEX 01 00:32:38
  TRACK 38 AUDIO
    TITLE "10:cjc026_10137"
    INDEX 01 00:33:00
  TRACK 39 AUDIO
    TITLE "0:"
    INDEX 01 00:34:15
  TRACK 40 AUDIO
    TITLE "11:cjc026_10138"
    INDEX 01 00:34:52
  TRACK 41 AUDIO
    TITLE "0:"
    INDEX 01 00:36:02
  TRACK 42 AUDIO
    TITLE "12:cjc026_10139"
    INDEX 01 00:36:40
  TRACK 43 AUDIO
    TITLE "0:"
    INDEX 01 00:37:51
  TRACK 44 AUDIO
    TITLE "10:cjc026_10140"
    INDEX 01 00:38:14
  TRACK 45 AUDIO
    TITLE "0:"
    INDEX 01 00:39:23
  TRACK 46 AUDIO
    TITLE "11:cjc026_10141"
    INDEX 01 00:39:55
  TRACK 47 AUDIO
    TITLE "0:"
    INDEX 01 00:41:19
  TRACK 48 AUDIO
    TITLE "12:cjc026_10142"
    INDEX 01 00:41:51
  TRACK 49 AUDIO
    TITLE "0:"
    INDEX 01 00:42:60
  TRACK 50 AUDIO
    TITLE "10:cjc026_10143"
    INDEX 01 00:43:20
  TRACK 51 AUDIO
    TITLE "0:"
    INDEX 01 00:44:31
  TRACK 52 AUDIO
    TITLE "11:cjc026_10144"
    INDEX 01 00:44:69
  TRACK 53 AUDIO
    TITLE "0:"
    INDEX 01 00:46:27
  TRACK 54 AUDIO
    TITLE "12:cjc026_10145"
    INDEX 01 00:46:62
  TRACK 55 AUDIO
    TITLE "0:"
    INDEX 01 00:47:74
  TRACK 56 AUDIO
    TITLE "10:cjc026_10146"
    INDEX 01 00:48:36
  TRACK 57 AUDIO
    TITLE "0:"
    INDEX 01 00:49:48
  TRACK 58 AUDIO
    TITLE "11:cjc026_10147"
    INDEX 01 00:50:11
  TRACK 59 AUDIO
    TITLE "0:"
    INDEX 01 00:51:30
  TRACK 60 AUDIO
    TITLE "12:cjc026_10148"
    INDEX 01 00:51:65
  TRACK 61 AUDIO
    TITLE "0:"
    INDEX 01 00:53:02
  TRACK 62 AUDIO
    TITLE "10:cjc026_10149"
    INDEX 01 00:53:37
  TRACK 63 AUDIO
    TITLE "0:"
    INDEX 01 00:54:48
  TRACK 64 AUDIO
    TITLE "11:cjc026_10150"
    INDEX 01 00:55:08
  TRACK 65 AUDIO
    TITLE "0:"
    INDEX 01 00:56:47
  TRACK 66 AUDIO
    TITLE "12:cjc026_10151"
    INDEX 01 00:57:07
  TRACK 67 AUDIO
    TITLE "0:"
    INDEX 01 00:58:15
  TRACK 68 AUDIO
    TITLE "10:cjc026_10152"
    INDEX 01 00:58:53
  TRACK 69 AUDIO
    TITLE "0:"
    INDEX 01 00:59:62
  TRACK 70 AUDIO
    TITLE "11:cjc026_10153"
    INDEX 01 01:00:25
  TRACK 71 AUDIO
    TITLE "0:"
    INDEX 01 01:01:33
  TRACK 72 AUDIO
    TITLE "12:cjc026_10154"
    INDEX 01 01:01:69
  TRACK 73 AUDIO
    TITLE "0:"
    INDEX 01 01:03:05
  TRACK 74 AUDIO
    TITLE "10:cjc026_10155"
    INDEX 01 01:03:43
  TRACK 75 AUDIO
    TITLE "0:"
    INDEX 01 01:04:51
  TRACK 76 AUDIO
    TITLE "11:cjc026_10156"
    INDEX 01 01:05:12
  TRACK 77 AUDIO
    TITLE "0:"
    INDEX 01 01:06:44
  TRACK 78 AUDIO
    TITLE "12:cjc026_10157"
    INDEX 01 01:07:05
  TRACK 79 AUDIO
    TITLE "0:"
    INDEX 01 01:08:13
  TRACK 80 AUDIO
    TITLE "10:cjc026_10158"
    INDEX 01 01:08:48
  TRACK 81 AUDIO
    TITLE "0:"
    INDEX 01 01:10:06
  TRACK 82 AUDIO
    TITLE "11:cjc026_10159"
    INDEX 01 01:10:39
  TRACK 83 AUDIO
    TITLE "0:"
    INDEX 01 01:11:69
  TRACK 84 AUDIO
    TITLE "12:cjc026_10160"
    INDEX 01 01:12:27
  TRACK 85 AUDIO
    TITLE "0:"
    INDEX 01 01:13:57
